<?xml version="1.0" standalone="no"?>
<!DOCTYPE svg PUBLIC "-//W3C//DTD SVG 20010904//EN"
 "http://www.w3.org/TR/2001/REC-SVG-20010904/DTD/svg10.dtd">
<svg version="1.0" xmlns="http://www.w3.org/2000/svg"
 width="512.000000pt" height="512.000000pt" viewBox="0 0 512.000000 512.000000"
 preserveAspectRatio="xMidYMid meet">
<metadata>
Created by potrace 1.11, written by Peter Selinger 2001-2013
</metadata>
<g transform="translate(0.000000,512.000000) scale(0.100000,-0.100000)"
fill="#000000" stroke="none">
<path d="M767 3493 c-4 -3 -7 -48 -7 -99 0 -109 -3 -106 115 -124 44 -7 88
-17 98 -22 16 -8 17 -56 17 -796 l0 -788 -112 -19 -113 -20 -3 -91 c-2 -70 1
-94 12 -103 11 -9 149 -11 583 -8 507 3 576 5 638 21 210 55 348 169 412 342
31 85 42 249 24 346 -30 153 -140 302 -269 362 -34 16 -62 32 -62 36 0 3 17
14 37 25 65 35 150 127 184 200 26 54 32 83 36 153 9 167 -39 305 -141 408
-98 98 -229 153 -416 174 -94 11 -1023 14 -1033 3z m1037 -258 c175 -37 265
-154 254 -330 -8 -124 -65 -201 -187 -252 -53 -21 -68 -23 -318 -23 l-263 0 0
303 c0 167 3 307 7 310 13 14 436 7 507 -8z m103 -869 c98 -26 155 -75 200
-171 26 -55 28 -69 28 -180 0 -111 -2 -124 -27 -171 -33 -62 -84 -108 -158
-143 -55 -26 -56 -26 -357 -29 l-303 -3 0 349 c0 192 3 352 7 355 3 4 130 7
282 7 204 0 290 -4 328 -14z"/>
<path d="M3210 3489 c-164 -21 -330 -103 -420 -207 -49 -57 -104 -166 -125
-247 -19 -76 -19 -260 0 -343 49 -206 200 -356 427 -423 66 -20 101 -22 353
-26 154 -2 290 -6 303 -8 l22 -5 0 -284 0 -283 -109 -18 c-125 -20 -121 -15
-121 -131 0 -49 4 -75 14 -83 9 -8 117 -11 377 -9 l364 3 3 98 c2 72 -1 99
-10 102 -7 3 -58 13 -113 23 l-100 17 -2 780 c-2 429 1 786 5 793 5 7 51 20
103 29 52 8 100 20 107 26 9 7 12 37 10 106 l-3 96 -510 1 c-280 1 -539 -2
-575 -7z m544 -245 c14 -5 16 -48 16 -380 l0 -374 -251 0 c-195 0 -265 3 -311
16 -106 27 -177 87 -225 189 -25 54 -28 70 -28 170 0 98 3 116 27 167 53 113
133 175 260 203 64 14 480 21 512 9z"/>
</g>
</svg>
